<mxfile host="app.diagrams.net" modified="2023-10-17T12:39:05.533Z" agent="Mozilla/5.0 (X11; Ubuntu; Linux x86_64; rv:109.0) Gecko/20100101 Firefox/118.0" etag="jpv4nV4MjPp5r_35cBTx" version="22.0.4" type="device">
  <diagram name="Page-1" id="wJ_tYUZF0zeBkKufBWIY">
    <mxGraphModel dx="584" dy="-322" grid="1" gridSize="10" guides="1" tooltips="1" connect="1" arrows="1" fold="1" page="1" pageScale="1" pageWidth="850" pageHeight="1100" math="0" shadow="0">
      <root>
        <mxCell id="0" />
        <mxCell id="1" parent="0" />
        <mxCell id="63dwXI5s0MUpZuePv3ob-26" style="edgeStyle=orthogonalEdgeStyle;rounded=0;orthogonalLoop=1;jettySize=auto;html=1;exitX=0;exitY=0;exitDx=0;exitDy=0;endArrow=open;endFill=0;" parent="1" source="63dwXI5s0MUpZuePv3ob-27" target="63dwXI5s0MUpZuePv3ob-64" edge="1">
          <mxGeometry relative="1" as="geometry">
            <Array as="points">
              <mxPoint x="1286" y="1776" />
              <mxPoint x="1286" y="1693" />
              <mxPoint x="1216" y="1693" />
            </Array>
          </mxGeometry>
        </mxCell>
        <mxCell id="63dwXI5s0MUpZuePv3ob-66" style="edgeStyle=orthogonalEdgeStyle;rounded=0;orthogonalLoop=1;jettySize=auto;html=1;exitX=-0.008;exitY=0.378;exitDx=0;exitDy=0;exitPerimeter=0;endArrow=open;endFill=0;" parent="1" source="63dwXI5s0MUpZuePv3ob-27" target="63dwXI5s0MUpZuePv3ob-57" edge="1">
          <mxGeometry relative="1" as="geometry" />
        </mxCell>
        <mxCell id="63dwXI5s0MUpZuePv3ob-72" style="edgeStyle=orthogonalEdgeStyle;rounded=0;orthogonalLoop=1;jettySize=auto;html=1;exitX=1;exitY=0.5;exitDx=0;exitDy=0;entryX=0;entryY=0.5;entryDx=0;entryDy=0;endArrow=open;endFill=0;" parent="1" source="63dwXI5s0MUpZuePv3ob-27" target="63dwXI5s0MUpZuePv3ob-59" edge="1">
          <mxGeometry relative="1" as="geometry">
            <Array as="points">
              <mxPoint x="1404" y="1810" />
              <mxPoint x="1460" y="1810" />
              <mxPoint x="1460" y="1840" />
            </Array>
          </mxGeometry>
        </mxCell>
        <mxCell id="63dwXI5s0MUpZuePv3ob-27" value="Page d&#39;accueil / de description de la mission" style="html=1;whiteSpace=wrap;" parent="1" vertex="1">
          <mxGeometry x="1274" y="1776" width="130" height="90" as="geometry" />
        </mxCell>
        <mxCell id="63dwXI5s0MUpZuePv3ob-28" value="Page de la liste des formations (vue utilisateur)" style="html=1;whiteSpace=wrap;" parent="1" vertex="1">
          <mxGeometry x="1114" y="1926" width="140" height="80" as="geometry" />
        </mxCell>
        <mxCell id="63dwXI5s0MUpZuePv3ob-29" value="Page de dÃ©tail d&#39;une formation" style="html=1;whiteSpace=wrap;" parent="1" vertex="1">
          <mxGeometry x="1114" y="2066" width="140" height="80" as="geometry" />
        </mxCell>
        <mxCell id="63dwXI5s0MUpZuePv3ob-30" value="Page de la liste des formations (vue administrateur)" style="html=1;whiteSpace=wrap;" parent="1" vertex="1">
          <mxGeometry x="1434" y="1926" width="140" height="80" as="geometry" />
        </mxCell>
        <mxCell id="63dwXI5s0MUpZuePv3ob-31" value="" style="endArrow=open;endFill=1;endSize=12;html=1;rounded=0;entryX=0.25;entryY=0;entryDx=0;entryDy=0;exitX=0.25;exitY=1;exitDx=0;exitDy=0;" parent="1" source="63dwXI5s0MUpZuePv3ob-28" target="63dwXI5s0MUpZuePv3ob-29" edge="1">
          <mxGeometry width="160" relative="1" as="geometry">
            <mxPoint x="1234" y="2036" as="sourcePoint" />
            <mxPoint x="1394" y="2036" as="targetPoint" />
          </mxGeometry>
        </mxCell>
        <mxCell id="63dwXI5s0MUpZuePv3ob-32" value="" style="endArrow=open;endFill=1;endSize=12;html=1;rounded=0;exitX=0.75;exitY=0;exitDx=0;exitDy=0;entryX=0.75;entryY=1;entryDx=0;entryDy=0;" parent="1" source="63dwXI5s0MUpZuePv3ob-29" target="63dwXI5s0MUpZuePv3ob-28" edge="1">
          <mxGeometry width="160" relative="1" as="geometry">
            <mxPoint x="1314" y="2026" as="sourcePoint" />
            <mxPoint x="1474" y="2026" as="targetPoint" />
          </mxGeometry>
        </mxCell>
        <mxCell id="63dwXI5s0MUpZuePv3ob-33" value="" style="endArrow=open;endFill=1;endSize=12;html=1;rounded=0;exitX=0;exitY=0.5;exitDx=0;exitDy=0;entryX=0.162;entryY=-0.011;entryDx=0;entryDy=0;entryPerimeter=0;" parent="1" source="63dwXI5s0MUpZuePv3ob-29" target="63dwXI5s0MUpZuePv3ob-27" edge="1">
          <mxGeometry width="160" relative="1" as="geometry">
            <mxPoint x="1254" y="2006" as="sourcePoint" />
            <mxPoint x="1414" y="2006" as="targetPoint" />
            <Array as="points">
              <mxPoint x="1084" y="2106" />
              <mxPoint x="1084" y="1736" />
              <mxPoint x="1295" y="1736" />
            </Array>
          </mxGeometry>
        </mxCell>
        <mxCell id="63dwXI5s0MUpZuePv3ob-34" value="" style="endArrow=open;endFill=1;endSize=12;html=1;rounded=0;exitX=0.25;exitY=0;exitDx=0;exitDy=0;entryX=-0.008;entryY=0.589;entryDx=0;entryDy=0;entryPerimeter=0;" parent="1" source="63dwXI5s0MUpZuePv3ob-28" target="63dwXI5s0MUpZuePv3ob-27" edge="1">
          <mxGeometry width="160" relative="1" as="geometry">
            <mxPoint x="1254" y="2006" as="sourcePoint" />
            <mxPoint x="1414" y="2006" as="targetPoint" />
          </mxGeometry>
        </mxCell>
        <mxCell id="63dwXI5s0MUpZuePv3ob-35" value="" style="endArrow=open;endFill=1;endSize=12;html=1;rounded=0;exitX=0;exitY=0.75;exitDx=0;exitDy=0;entryX=0.75;entryY=0;entryDx=0;entryDy=0;" parent="1" source="63dwXI5s0MUpZuePv3ob-27" target="63dwXI5s0MUpZuePv3ob-28" edge="1">
          <mxGeometry width="160" relative="1" as="geometry">
            <mxPoint x="1254" y="2006" as="sourcePoint" />
            <mxPoint x="1414" y="2006" as="targetPoint" />
          </mxGeometry>
        </mxCell>
        <mxCell id="63dwXI5s0MUpZuePv3ob-36" value="" style="endArrow=open;endFill=1;endSize=12;html=1;rounded=0;entryX=0.379;entryY=0;entryDx=0;entryDy=0;exitX=1.015;exitY=0.578;exitDx=0;exitDy=0;exitPerimeter=0;entryPerimeter=0;" parent="1" source="63dwXI5s0MUpZuePv3ob-27" target="63dwXI5s0MUpZuePv3ob-30" edge="1">
          <mxGeometry width="160" relative="1" as="geometry">
            <mxPoint x="1414" y="1796" as="sourcePoint" />
            <mxPoint x="1414" y="2006" as="targetPoint" />
          </mxGeometry>
        </mxCell>
        <mxCell id="63dwXI5s0MUpZuePv3ob-37" value="" style="endArrow=open;endFill=1;endSize=12;html=1;rounded=0;entryX=1;entryY=0.75;entryDx=0;entryDy=0;exitX=0.25;exitY=0;exitDx=0;exitDy=0;" parent="1" source="63dwXI5s0MUpZuePv3ob-30" target="63dwXI5s0MUpZuePv3ob-27" edge="1">
          <mxGeometry width="160" relative="1" as="geometry">
            <mxPoint x="1254" y="2006" as="sourcePoint" />
            <mxPoint x="1414" y="2006" as="targetPoint" />
          </mxGeometry>
        </mxCell>
        <mxCell id="63dwXI5s0MUpZuePv3ob-38" value="" style="endArrow=open;endFill=1;endSize=12;html=1;rounded=0;exitX=1;exitY=0.25;exitDx=0;exitDy=0;entryX=0;entryY=0.25;entryDx=0;entryDy=0;" parent="1" source="63dwXI5s0MUpZuePv3ob-28" target="63dwXI5s0MUpZuePv3ob-30" edge="1">
          <mxGeometry width="160" relative="1" as="geometry">
            <mxPoint x="1254" y="2036" as="sourcePoint" />
            <mxPoint x="1414" y="2036" as="targetPoint" />
          </mxGeometry>
        </mxCell>
        <mxCell id="63dwXI5s0MUpZuePv3ob-39" value="" style="endArrow=open;endFill=1;endSize=12;html=1;rounded=0;exitX=0;exitY=0.75;exitDx=0;exitDy=0;entryX=1;entryY=0.75;entryDx=0;entryDy=0;" parent="1" source="63dwXI5s0MUpZuePv3ob-30" target="63dwXI5s0MUpZuePv3ob-28" edge="1">
          <mxGeometry width="160" relative="1" as="geometry">
            <mxPoint x="1254" y="2066" as="sourcePoint" />
            <mxPoint x="1414" y="2066" as="targetPoint" />
          </mxGeometry>
        </mxCell>
        <mxCell id="63dwXI5s0MUpZuePv3ob-40" value="Page ajouter formation" style="html=1;whiteSpace=wrap;" parent="1" vertex="1">
          <mxGeometry x="1554" y="2066" width="143" height="80" as="geometry" />
        </mxCell>
        <mxCell id="63dwXI5s0MUpZuePv3ob-41" value="&lt;div&gt;Page supprimer&amp;nbsp;&lt;/div&gt;&lt;div&gt;formation&lt;/div&gt;" style="html=1;whiteSpace=wrap;gradientColor=none;" parent="1" vertex="1">
          <mxGeometry x="1284" y="2216" width="140" height="80" as="geometry" />
        </mxCell>
        <mxCell id="63dwXI5s0MUpZuePv3ob-42" value="Page modifier formation" style="html=1;whiteSpace=wrap;" parent="1" vertex="1">
          <mxGeometry x="1444" y="2166" width="140" height="80" as="geometry" />
        </mxCell>
        <mxCell id="63dwXI5s0MUpZuePv3ob-43" value="" style="endArrow=open;endFill=1;endSize=12;html=1;rounded=0;exitX=1;exitY=0.25;exitDx=0;exitDy=0;entryX=0.455;entryY=-0.012;entryDx=0;entryDy=0;entryPerimeter=0;" parent="1" source="63dwXI5s0MUpZuePv3ob-30" target="63dwXI5s0MUpZuePv3ob-40" edge="1">
          <mxGeometry width="160" relative="1" as="geometry">
            <mxPoint x="1254" y="2066" as="sourcePoint" />
            <mxPoint x="1414" y="2066" as="targetPoint" />
            <Array as="points">
              <mxPoint x="1619" y="1946" />
            </Array>
          </mxGeometry>
        </mxCell>
        <mxCell id="63dwXI5s0MUpZuePv3ob-44" value="" style="endArrow=open;endFill=1;endSize=12;html=1;rounded=0;exitX=0.579;exitY=1.013;exitDx=0;exitDy=0;entryX=0.5;entryY=0;entryDx=0;entryDy=0;exitPerimeter=0;" parent="1" source="63dwXI5s0MUpZuePv3ob-30" target="63dwXI5s0MUpZuePv3ob-42" edge="1">
          <mxGeometry width="160" relative="1" as="geometry">
            <mxPoint x="1324" y="2166" as="sourcePoint" />
            <mxPoint x="1484" y="2166" as="targetPoint" />
            <Array as="points">
              <mxPoint x="1514" y="2026" />
            </Array>
          </mxGeometry>
        </mxCell>
        <mxCell id="63dwXI5s0MUpZuePv3ob-45" value="" style="endArrow=open;endFill=1;endSize=12;html=1;rounded=0;entryX=1;entryY=0.5;entryDx=0;entryDy=0;" parent="1" target="63dwXI5s0MUpZuePv3ob-30" edge="1">
          <mxGeometry width="160" relative="1" as="geometry">
            <mxPoint x="1594" y="2066" as="sourcePoint" />
            <mxPoint x="1414" y="2066" as="targetPoint" />
            <Array as="points">
              <mxPoint x="1596" y="1966" />
            </Array>
          </mxGeometry>
        </mxCell>
        <mxCell id="63dwXI5s0MUpZuePv3ob-46" value="" style="endArrow=open;endFill=1;endSize=12;html=1;rounded=0;entryX=0.436;entryY=1;entryDx=0;entryDy=0;entryPerimeter=0;exitX=0.371;exitY=0.013;exitDx=0;exitDy=0;exitPerimeter=0;" parent="1" source="63dwXI5s0MUpZuePv3ob-42" target="63dwXI5s0MUpZuePv3ob-30" edge="1">
          <mxGeometry width="160" relative="1" as="geometry">
            <mxPoint x="1254" y="2066" as="sourcePoint" />
            <mxPoint x="1414" y="2066" as="targetPoint" />
          </mxGeometry>
        </mxCell>
        <mxCell id="63dwXI5s0MUpZuePv3ob-47" value="" style="endArrow=open;endFill=1;endSize=12;html=1;rounded=0;exitX=0.25;exitY=1;exitDx=0;exitDy=0;entryX=0.75;entryY=0;entryDx=0;entryDy=0;" parent="1" source="63dwXI5s0MUpZuePv3ob-30" target="63dwXI5s0MUpZuePv3ob-41" edge="1">
          <mxGeometry width="160" relative="1" as="geometry">
            <mxPoint x="1254" y="2066" as="sourcePoint" />
            <mxPoint x="1414" y="2066" as="targetPoint" />
          </mxGeometry>
        </mxCell>
        <mxCell id="63dwXI5s0MUpZuePv3ob-48" value="" style="endArrow=open;endFill=1;endSize=12;html=1;rounded=0;exitX=0.5;exitY=0;exitDx=0;exitDy=0;entryX=0.086;entryY=0.975;entryDx=0;entryDy=0;entryPerimeter=0;" parent="1" source="63dwXI5s0MUpZuePv3ob-41" target="63dwXI5s0MUpZuePv3ob-30" edge="1">
          <mxGeometry width="160" relative="1" as="geometry">
            <mxPoint x="1254" y="2066" as="sourcePoint" />
            <mxPoint x="1414" y="2066" as="targetPoint" />
          </mxGeometry>
        </mxCell>
        <mxCell id="63dwXI5s0MUpZuePv3ob-49" value="" style="endArrow=open;endFill=1;endSize=12;html=1;rounded=0;exitX=1;exitY=0.5;exitDx=0;exitDy=0;" parent="1" source="63dwXI5s0MUpZuePv3ob-40" edge="1">
          <mxGeometry width="160" relative="1" as="geometry">
            <mxPoint x="1254" y="2066" as="sourcePoint" />
            <mxPoint x="1384" y="1776" as="targetPoint" />
            <Array as="points">
              <mxPoint x="1714" y="2106" />
              <mxPoint x="1714" y="1756" />
              <mxPoint x="1384" y="1756" />
            </Array>
          </mxGeometry>
        </mxCell>
        <mxCell id="63dwXI5s0MUpZuePv3ob-50" value="" style="endArrow=open;endFill=1;endSize=12;html=1;rounded=0;exitX=1;exitY=0.5;exitDx=0;exitDy=0;entryX=0.654;entryY=0;entryDx=0;entryDy=0;entryPerimeter=0;" parent="1" source="63dwXI5s0MUpZuePv3ob-42" target="63dwXI5s0MUpZuePv3ob-27" edge="1">
          <mxGeometry width="160" relative="1" as="geometry">
            <mxPoint x="1254" y="2066" as="sourcePoint" />
            <mxPoint x="1414" y="2066" as="targetPoint" />
            <Array as="points">
              <mxPoint x="1744" y="2206" />
              <mxPoint x="1744" y="1736" />
              <mxPoint x="1359" y="1736" />
            </Array>
          </mxGeometry>
        </mxCell>
        <mxCell id="63dwXI5s0MUpZuePv3ob-51" value="" style="endArrow=open;endFill=1;endSize=12;html=1;rounded=0;exitX=1;exitY=0.75;exitDx=0;exitDy=0;entryX=0.392;entryY=-0.033;entryDx=0;entryDy=0;entryPerimeter=0;" parent="1" source="63dwXI5s0MUpZuePv3ob-41" target="63dwXI5s0MUpZuePv3ob-27" edge="1">
          <mxGeometry width="160" relative="1" as="geometry">
            <mxPoint x="1254" y="2016" as="sourcePoint" />
            <mxPoint x="1414" y="2016" as="targetPoint" />
            <Array as="points">
              <mxPoint x="1774" y="2276" />
              <mxPoint x="1774" y="1716" />
              <mxPoint x="1325" y="1716" />
            </Array>
          </mxGeometry>
        </mxCell>
        <mxCell id="63dwXI5s0MUpZuePv3ob-52" style="edgeStyle=orthogonalEdgeStyle;rounded=0;orthogonalLoop=1;jettySize=auto;html=1;exitX=0.25;exitY=0;exitDx=0;exitDy=0;entryX=0.25;entryY=1;entryDx=0;entryDy=0;endArrow=open;endFill=0;" parent="1" source="63dwXI5s0MUpZuePv3ob-53" target="63dwXI5s0MUpZuePv3ob-57" edge="1">
          <mxGeometry relative="1" as="geometry" />
        </mxCell>
        <mxCell id="63dwXI5s0MUpZuePv3ob-53" value="Page de paiement" style="html=1;whiteSpace=wrap;" parent="1" vertex="1">
          <mxGeometry x="890" y="1909" width="140" height="80" as="geometry" />
        </mxCell>
        <mxCell id="63dwXI5s0MUpZuePv3ob-54" style="edgeStyle=orthogonalEdgeStyle;rounded=0;orthogonalLoop=1;jettySize=auto;html=1;exitX=0;exitY=0.25;exitDx=0;exitDy=0;entryX=1;entryY=0.25;entryDx=0;entryDy=0;endArrow=open;endFill=0;" parent="1" source="63dwXI5s0MUpZuePv3ob-55" target="63dwXI5s0MUpZuePv3ob-59" edge="1">
          <mxGeometry relative="1" as="geometry" />
        </mxCell>
        <mxCell id="63dwXI5s0MUpZuePv3ob-55" value="Page de l&#39;historique des commandes" style="html=1;whiteSpace=wrap;" parent="1" vertex="1">
          <mxGeometry x="1800" y="1800" width="140" height="80" as="geometry" />
        </mxCell>
        <mxCell id="63dwXI5s0MUpZuePv3ob-56" style="edgeStyle=orthogonalEdgeStyle;rounded=0;orthogonalLoop=1;jettySize=auto;html=1;exitX=0.75;exitY=1;exitDx=0;exitDy=0;endArrow=open;endFill=0;entryX=0.75;entryY=0;entryDx=0;entryDy=0;" parent="1" source="63dwXI5s0MUpZuePv3ob-57" target="63dwXI5s0MUpZuePv3ob-53" edge="1">
          <mxGeometry relative="1" as="geometry">
            <Array as="points">
              <mxPoint x="995" y="1861" />
              <mxPoint x="995" y="1861" />
            </Array>
          </mxGeometry>
        </mxCell>
        <mxCell id="63dwXI5s0MUpZuePv3ob-68" style="edgeStyle=orthogonalEdgeStyle;rounded=0;orthogonalLoop=1;jettySize=auto;html=1;exitX=1;exitY=0.75;exitDx=0;exitDy=0;entryX=0.5;entryY=0;entryDx=0;entryDy=0;endArrow=open;endFill=0;" parent="1" source="63dwXI5s0MUpZuePv3ob-57" target="63dwXI5s0MUpZuePv3ob-28" edge="1">
          <mxGeometry relative="1" as="geometry" />
        </mxCell>
        <mxCell id="63dwXI5s0MUpZuePv3ob-57" value="Page du panier" style="html=1;whiteSpace=wrap;" parent="1" vertex="1">
          <mxGeometry x="890" y="1770" width="140" height="80" as="geometry" />
        </mxCell>
        <mxCell id="63dwXI5s0MUpZuePv3ob-58" style="edgeStyle=orthogonalEdgeStyle;rounded=0;orthogonalLoop=1;jettySize=auto;html=1;exitX=1;exitY=0.75;exitDx=0;exitDy=0;entryX=0;entryY=0.75;entryDx=0;entryDy=0;endArrow=open;endFill=0;" parent="1" source="63dwXI5s0MUpZuePv3ob-59" target="63dwXI5s0MUpZuePv3ob-55" edge="1">
          <mxGeometry relative="1" as="geometry" />
        </mxCell>
        <mxCell id="63dwXI5s0MUpZuePv3ob-59" value="Page de profil" style="html=1;whiteSpace=wrap;" parent="1" vertex="1">
          <mxGeometry x="1560" y="1800" width="140" height="80" as="geometry" />
        </mxCell>
        <mxCell id="63dwXI5s0MUpZuePv3ob-60" style="edgeStyle=orthogonalEdgeStyle;rounded=0;orthogonalLoop=1;jettySize=auto;html=1;exitX=0;exitY=0.75;exitDx=0;exitDy=0;entryX=1;entryY=0.75;entryDx=0;entryDy=0;endArrow=open;endFill=0;" parent="1" source="63dwXI5s0MUpZuePv3ob-61" target="63dwXI5s0MUpZuePv3ob-64" edge="1">
          <mxGeometry relative="1" as="geometry" />
        </mxCell>
        <mxCell id="63dwXI5s0MUpZuePv3ob-61" value="Page d&#39;inscription" style="html=1;whiteSpace=wrap;" parent="1" vertex="1">
          <mxGeometry x="1389" y="1530" width="140" height="80" as="geometry" />
        </mxCell>
        <mxCell id="63dwXI5s0MUpZuePv3ob-62" style="edgeStyle=orthogonalEdgeStyle;rounded=0;orthogonalLoop=1;jettySize=auto;html=1;exitX=1;exitY=0.25;exitDx=0;exitDy=0;entryX=0;entryY=0.25;entryDx=0;entryDy=0;endArrow=open;endFill=0;" parent="1" source="63dwXI5s0MUpZuePv3ob-64" target="63dwXI5s0MUpZuePv3ob-61" edge="1">
          <mxGeometry relative="1" as="geometry" />
        </mxCell>
        <mxCell id="63dwXI5s0MUpZuePv3ob-63" style="edgeStyle=orthogonalEdgeStyle;rounded=0;orthogonalLoop=1;jettySize=auto;html=1;exitX=0.75;exitY=1;exitDx=0;exitDy=0;entryX=0.25;entryY=0;entryDx=0;entryDy=0;endArrow=open;endFill=0;" parent="1" source="63dwXI5s0MUpZuePv3ob-64" target="63dwXI5s0MUpZuePv3ob-27" edge="1">
          <mxGeometry relative="1" as="geometry">
            <Array as="points">
              <mxPoint x="1251" y="1660" />
              <mxPoint x="1307" y="1660" />
            </Array>
          </mxGeometry>
        </mxCell>
        <mxCell id="63dwXI5s0MUpZuePv3ob-64" value="Page d&#39;autentification" style="html=1;whiteSpace=wrap;" parent="1" vertex="1">
          <mxGeometry x="1144" y="1530" width="143" height="80" as="geometry" />
        </mxCell>
        <mxCell id="63dwXI5s0MUpZuePv3ob-65" style="edgeStyle=orthogonalEdgeStyle;rounded=0;orthogonalLoop=1;jettySize=auto;html=1;exitX=1;exitY=0.25;exitDx=0;exitDy=0;entryX=0.015;entryY=0.156;entryDx=0;entryDy=0;entryPerimeter=0;endArrow=open;endFill=0;" parent="1" source="63dwXI5s0MUpZuePv3ob-57" target="63dwXI5s0MUpZuePv3ob-27" edge="1">
          <mxGeometry relative="1" as="geometry" />
        </mxCell>
        <mxCell id="63dwXI5s0MUpZuePv3ob-69" style="edgeStyle=orthogonalEdgeStyle;rounded=0;orthogonalLoop=1;jettySize=auto;html=1;exitX=0.136;exitY=-0.012;exitDx=0;exitDy=0;entryX=0.957;entryY=1.013;entryDx=0;entryDy=0;entryPerimeter=0;exitPerimeter=0;endArrow=open;endFill=0;" parent="1" source="63dwXI5s0MUpZuePv3ob-28" target="63dwXI5s0MUpZuePv3ob-57" edge="1">
          <mxGeometry relative="1" as="geometry" />
        </mxCell>
        <mxCell id="63dwXI5s0MUpZuePv3ob-70" style="edgeStyle=orthogonalEdgeStyle;rounded=0;orthogonalLoop=1;jettySize=auto;html=1;exitX=0;exitY=0.25;exitDx=0;exitDy=0;entryX=0.985;entryY=0.122;entryDx=0;entryDy=0;entryPerimeter=0;endArrow=open;endFill=0;" parent="1" source="63dwXI5s0MUpZuePv3ob-59" target="63dwXI5s0MUpZuePv3ob-27" edge="1">
          <mxGeometry relative="1" as="geometry" />
        </mxCell>
      </root>
    </mxGraphModel>
  </diagram>
</mxfile>
